<?xml version="1.0" encoding="utf-8"?>
<!-- Generator: Adobe Illustrator 23.0.3, SVG Export Plug-In . SVG Version: 6.00 Build 0)  -->
<svg version="1.1" id="Calque_1" xmlns="http://www.w3.org/2000/svg" xmlns:xlink="http://www.w3.org/1999/xlink" x="0px" y="0px"
	 viewBox="0 0 286.2 310.2" style="enable-background:new 0 0 286.2 310.2;" xml:space="preserve">
<style type="text/css">
	.st0{fill:none;stroke:#FFFFFF;stroke-width:3;stroke-miterlimit:10;}
</style>
<path class="st0" d="M56,198.2c-7.6-6.5-27.6-25.5-33.8-56.4c-4.4-22.1,0.3-39.5,3.6-51.1c0,0,14.2-50.1,73.3-82.2
	c0.9-0.5,3.3-1.8,4.4-0.9c2,1.5-1,8.4-2.7,12.4c0,0-4.7,11.1-11.6,29.3C83.4,64.7,90,66,86.1,91.5c-2.9,19.2-7.2,21.9-7.6,36.9
	c-0.3,12.3,2.3,22.4,4.4,28.9c13.4-15.6,25.3-20.1,33.8-21.3c13.4-2,45.3-4,45.3-4c0.9-0.1,2.8-0.2,4.9-1.3c3.8-2.1,5.3-6,5.8-7.1
	c6-13.8,38.9-24.8,41.8-25.8c2.7-0.9,6.2-1.9,10.4-2.8c11.3-2.5,21-2.8,27.8-2.5c-9.8,1-32.2,4.6-52.4,21.8c-9.7,8.3-16,17.2-20,24
	c6-5.9,15.8-14.1,29.8-20c22.8-9.7,43.5-7.7,52.9-6.2c-18.5,1.4-33,6-42.7,9.8c-10,4-34.8,13.8-51.1,34.7c-2.3,2.9-4.6,6.3-9.3,11.6
	c-10,11-19,17.2-24,20.9c-8.3,6.1-19.8,15.9-32.4,31.6c1.4,8.9,1,15.8,0.4,20.4c-0.3,2.2-0.6,3.6-0.8,4.5c-1.1,4.8-2.9,12.8-9,16
	c-1.3,0.7-3.6,1.6-7.1,1.3c0.5,2.7,0.9,7.2-0.4,12.4c-0.8,3.2-2,5.7-3.1,7.6c-5-8.4-12.4-20.8-21.3-36.4
	c-7.3-12.7-11.5-20.3-11.1-30.7C51.4,208.1,53.9,202.1,56,198.2z"/>
<path class="st0" d="M103.2,245.4c12.3,12.6,24.1,21.1,32.8,26.6c25.8,16.4,47,20.8,81.8,28c4.9,1,17.5,3.5,32.4,0
	c7.6-1.8,16.3-5.2,16-7.6c-0.3-2.3-9.4-1.1-19.6-4.9c-10.1-3.8-15-10.4-22.2-18.2c-2.8-3.1-24.7-26.7-54.7-44.4
	c-6.5-3.8-13-4.9-21.8-11.1c-9.1-6.4-15.4-13.5-19.3-18.5"/>
</svg>
