<?xml version="1.0" encoding="utf-8"?>
<!-- Generator: Adobe Illustrator 24.1.2, SVG Export Plug-In . SVG Version: 6.00 Build 0)  -->
<svg version="1.1" id="Calque_1" xmlns="http://www.w3.org/2000/svg" xmlns:xlink="http://www.w3.org/1999/xlink" x="0px" y="0px"
	 viewBox="0 0 34.61 45.86" style="enable-background:new 0 0 34.61 45.86;" xml:space="preserve">
<style type="text/css">
	.st0{fill:#FFFFFF;}
	.st1{fill:#000022;}
	.st2{fill:#001E4A;}
	.st3{fill:#002F57;}
</style>
<rect x="3.38" y="22.04" transform="matrix(-1.836970e-16 1 -1 -1.836970e-16 31.9493 18.6635)" class="st0" width="6.54" height="6.54"/>
<rect x="26.06" y="22.67" transform="matrix(0.0945 0.9955 -0.9955 0.0945 49.9965 -5.5908)" class="st1" width="4.03" height="4.03"/>
<rect x="30.55" y="19.5" transform="matrix(0.957 0.29 -0.29 0.957 7.4224 -8.3585)" class="st2" width="2.73" height="2.73"/>
<rect x="32.51" y="15.74" transform="matrix(0.9198 -0.3924 0.3924 0.9198 -3.8277 14.41)" class="st3" width="1.66" height="1.66"/>
<rect width="11.79" height="45.86"/>
<rect x="13.56" y="-12.69" transform="matrix(-1.836970e-16 1 -1 -1.836970e-16 21.914 -13.5569)" width="8.36" height="33.74"/>
<rect x="13.29" y="24.54" transform="matrix(-1.836970e-16 1 -1 -1.836970e-16 59.1429 24.2143)" width="8.36" height="34.29"/>
<path d="M18,24.68c1.05-0.01,4.85-0.05,5.04,0"/>
<path d="M18,20.8h-0.26l0,3.89c0,0,0.1,0,0.26,0"/>
<polyline points="17.74,20.8 7.47,20.8 7.47,28.57 23.25,28.57 23.25,23.48 17.87,23.48 "/>
<rect x="20.47" y="17.41" transform="matrix(-0.159 0.9873 -0.9873 -0.159 46.4275 0.4181)" width="5.14" height="5.14"/>
<path d="M18,23.32"/>
</svg>
