<svg id="Layer_1" enable-background="new 0 0 128 128" height="512" viewBox="0 0 128 128" width="512" xmlns="http://www.w3.org/2000/svg"><g><g><path d="m108.896 55.601c-.344 0-.682.014-1.021.026l-11.847-15.692c-1.349-1.787-3.491-2.854-5.729-2.854h-77.245c-3.959 0-7.181 3.221-7.181 7.18v43.477c0 3.959 3.222 7.181 7.181 7.181h77.218c2.236 0 4.376-1.064 5.726-2.848l11.917-15.749c.327.011.649.029.981.029 9.662 0 17.231-4.558 17.231-10.375s-7.569-10.375-17.231-10.375zm-12.86 14.779c-1.489-1.29-2.372-2.8-2.372-4.404 0-1.888 1.164-3.376 2.322-4.393 1.331 1.018 2.194 2.616 2.194 4.417.001 1.778-.841 3.36-2.144 4.38zm-1.927.975c-.476.133-.975.209-1.492.209-3.067 0-5.563-2.496-5.563-5.564 0-3.067 2.496-5.563 5.563-5.563.509 0 1 .074 1.469.203-1.581 1.596-2.421 3.415-2.421 5.337-.001 1.985.898 3.817 2.444 5.378zm15.308 2.981 3.025-3.998c1.929-2.547 1.93-6.105.005-8.655l-3.071-4.068c8.043.146 14.751 3.91 14.751 8.361 0 4.443-6.685 8.201-14.71 8.36z" fill="#e6e7e8"/></g><g><g><path d="m107.65 58.286-16.419-21.748c-1.168-1.547-2.994-2.456-4.932-2.456h-77.246c-3.413 0-6.18 2.767-6.18 6.18v43.477c0 3.413 2.767 6.18 6.18 6.18h77.218c1.936 0 3.76-.907 4.928-2.451l16.447-21.733c1.667-2.203 1.668-5.245.004-7.449zm-19.034 10.278c-3.625 0-6.564-2.939-6.564-6.564s2.939-6.564 6.564-6.564 6.564 2.939 6.564 6.564-2.939 6.564-6.564 6.564z" fill="#fa759e"/></g><g><path d="m72.846 40.301-58.691-.041c-1.364-.001-2.471 1.104-2.472 2.469l-.028 38.542c-.001 1.365 1.104 2.472 2.469 2.472l58.691.041c1.364.001 2.471-1.104 2.472-2.469l.028-38.542c.001-1.364-1.105-2.471-2.469-2.472z" fill="#ffd7e5"/></g><g><g><path d="m5.873 83.738v-43.476c0-3.413 2.767-6.18 6.18-6.18h-3c-3.413 0-6.18 2.767-6.18 6.18v43.477c0 3.413 2.767 6.18 6.18 6.18h3c-3.413-.001-6.18-2.768-6.18-6.181z" fill="#fff"/></g></g><g fill="#3a2c60"><path d="m18.84 50.526h28.463c.553 0 1-.448 1-1s-.447-1-1-1h-28.463c-.553 0-1 .448-1 1s.447 1 1 1z"/><path d="m18.84 63.022h49.289c.553 0 1-.448 1-1s-.447-1-1-1h-49.289c-.553 0-1 .448-1 1s.447 1 1 1z"/><path d="m18.84 75.518h49.289c.553 0 1-.448 1-1s-.447-1-1-1h-49.289c-.553 0-1 .448-1 1s.447 1 1 1z"/><path d="m43.502 88.918h-6.938c-.553 0-1 .448-1 1s.447 1 1 1h6.938c.553 0 1-.448 1-1s-.447-1-1-1z"/><path d="m104.896 51.601c-.344 0-.682.014-1.02.026l-11.848-15.691c-1.349-1.787-3.49-2.854-5.729-2.854h-77.245c-3.959 0-7.181 3.221-7.181 7.18v43.477c0 3.959 3.222 7.18 7.181 7.18h23.26c.553 0 1-.448 1-1s-.447-1-1-1h-23.26c-2.856 0-5.181-2.324-5.181-5.18v-43.477c0-2.856 2.324-5.18 5.181-5.18h77.245c1.615 0 3.16.77 4.134 2.059l16.419 21.748c1.389 1.839 1.387 4.406-.004 6.243l-3.89 5.14c-3.612-.266-6.863-1.258-9.251-2.693 1.516-1.384 2.474-3.369 2.474-5.578 0-4.171-3.394-7.564-7.564-7.564s-7.565 3.392-7.565 7.563 3.394 7.564 7.564 7.564c1.164 0 2.263-.272 3.249-.744 2.448 1.695 5.803 2.894 9.666 3.337l-11.129 14.707c-.975 1.287-2.519 2.055-4.132 2.055h-38.206c-.553 0-1 .448-1 1s.447 1 1 1h38.206c2.235 0 4.376-1.064 5.727-2.848l11.918-15.749c.326.011.649.029.98.029 9.662 0 17.231-4.557 17.231-10.375s-7.568-10.375-17.23-10.375zm-10.715 10.399c0 1.778-.842 3.36-2.144 4.38-1.489-1.29-2.373-2.8-2.373-4.403 0-1.887 1.164-3.376 2.322-4.393 1.331 1.017 2.195 2.616 2.195 4.416zm-11.129 0c0-3.068 2.496-5.564 5.564-5.564.509 0 1 .075 1.469.203-1.581 1.596-2.422 3.415-2.422 5.337 0 1.986.898 3.818 2.444 5.379-.476.133-.975.209-1.492.209-3.067 0-5.563-2.496-5.563-5.564zm22.366 8.336 3.025-3.998c1.928-2.547 1.929-6.106.004-8.655l-3.071-4.068c8.043.146 14.751 3.911 14.751 8.361 0 4.443-6.685 8.201-14.709 8.36z"/></g></g></g></svg>